PathFileType	4	(X/Y/Z)	TVC_4_BWA_8_walk_RCNL2025.trc
DataRate	CameraRate	NumFrames	NumMarkers	Units	OrigDataRate	OrigDataStartFrame	OrigNumFrames
100	100	10	27	mm	100	184	294
Frame#	Time	R_Shoulder			L_Shoulder			C7			J_Notch			R_Elbow			L_Elbow			R_Wrist			L_Wrist			R_Asis			L_Asis			R_Psis			L_Psis			Sacral			Thoracic			Sternum			R_Thigh_Lateral			R_Knee_Lateral			R_Shank_Lateral			R_Ankle_Lateral			R_Heel			R_Toe			L_Thigh_Lateral			L_Knee_Lateral			L_Shank_Lateral			L_Ankle_Lateral			L_Heel			L_Toe		
		X1	Y1	Z1	X2	Y2	Z2	X3	Y3	Z3	X4	Y4	Z4	X5	Y5	Z5	X6	Y6	Z6	X7	Y7	Z7	X8	Y8	Z8	X9	Y9	Z9	X10	Y10	Z10	X11	Y11	Z11	X12	Y12	Z12	X13	Y13	Z13	X14	Y14	Z14	X15	Y15	Z15	X16	Y16	Z16	X17	Y17	Z17	X18	Y18	Z18	X19	Y19	Z19	X20	Y20	Z20	X21	Y21	Z21	X22	Y22	Z22	X23	Y23	Z23	X24	Y24	Z24	X25	Y25	Z25	X26	Y26	Z26	X27	Y27	Z27
184	1.83000000	149.363876	1299.286621	362.315582	159.759262	1311.893799	-19.336273	93.205635	1370.993286	184.333694	239.546570	1254.801392	163.045120	146.645538	981.155334	424.344879	97.134911	989.560547	-79.228973	277.022102	790.114532	391.939713	168.702858	785.611237	-84.478161	175.155991	853.557190	342.348511	150.431152	864.579407	-7.145794	21.189201	889.989563	233.477280	16.528568	892.821045	140.717560	18.858885	891.405304	187.097420	22.063950	1122.745972	181.948975	284.048676	1068.383057	160.207748	220.060287	504.239502	357.414520	195.938553	419.558594	309.832825	73.857147	316.691681	379.899567	-87.339592	174.549469	293.592926	-121.559616	208.853943	249.910263	-25.346045	65.632462	258.796417	220.928421	510.677856	-10.081136	228.171432	428.995117	39.860382	229.400024	304.583344	-1.487128	220.524277	56.239044	88.062447	176.074921	47.156441	136.037872	356.264832	44.389076	103.911781
185	1.84000000	157.886993	1300.301270	361.533905	169.151505	1312.793457	-20.036182	102.105423	1372.088257	183.382187	248.282257	1255.564697	162.427414	152.021759	982.013184	423.110382	109.049385	990.052856	-80.717056	280.029343	789.375336	391.195816	182.868729	786.874542	-84.996708	182.554123	854.543335	341.559265	158.427628	865.382446	-8.277866	28.925613	891.177673	232.418304	24.362911	894.187561	139.687744	26.644262	892.682617	186.053024	30.486662	1124.036499	180.940582	292.339142	1068.896606	159.862549	234.018005	507.054535	357.420288	213.535248	421.644623	309.807617	93.102448	319.146332	379.629150	-68.360176	177.591110	293.981445	-102.692863	210.584579	249.319016	-4.397017	68.851746	262.980682	225.256622	510.717377	-10.905044	231.564438	428.892456	39.173393	232.092285	304.272675	-1.832627	220.485718	56.193081	88.079353	175.948151	47.191898	136.010056	356.162354	44.377350	103.789085
186	1.85000000	166.395660	1301.218628	360.844391	178.537598	1313.693848	-20.639999	111.020081	1373.158691	182.537643	256.995880	1256.260986	161.905334	157.443344	982.810486	421.938293	121.022484	990.573547	-82.162743	282.889648	788.540497	390.587234	197.092010	788.202240	-85.424400	189.902359	855.609497	340.834412	166.064621	866.035156	-9.334201	36.572231	892.368713	231.410934	32.087784	895.499390	138.716476	34.330008	893.934052	185.063705	38.848385	1125.325317	179.965714	300.537170	1069.318359	159.588654	247.441345	510.036041	357.256683	230.871246	424.093628	309.475067	112.544571	321.324036	378.977417	-48.455708	179.273788	294.124847	-83.161705	210.619095	248.440628	18.427896	71.391342	267.075409	229.807297	510.769440	-11.623363	235.025558	428.780579	38.586990	234.926910	304.023041	-2.189394	220.448563	56.140007	88.106964	175.818832	47.243599	135.982895	356.066498	44.341164	103.665794
187	1.86000000	174.882858	1302.037476	360.240875	187.908386	1314.592651	-21.153412	119.942047	1374.193604	181.795761	265.684998	1256.888550	161.473190	162.923248	983.549866	420.827942	133.049866	991.123047	-83.564125	285.619598	787.617279	390.117935	211.360207	789.590271	-85.757629	197.244141	856.746460	340.166016	173.320480	866.565552	-10.305471	44.148651	893.550781	230.467682	39.720486	896.747437	137.814240	41.934568	895.149109	184.140961	47.155132	1126.596924	179.022186	308.649567	1069.659058	159.372375	260.524841	513.078247	356.886627	247.939423	426.860962	308.846832	132.001785	323.225067	378.022827	-27.692080	179.568100	294.073364	-62.990898	209.054672	247.415878	42.777725	73.143021	270.815125	234.553894	510.809570	-12.223306	238.560913	428.658997	38.114113	237.773560	303.834656	-2.541857	220.423340	56.087505	88.147095	175.698441	47.312202	135.957748	355.983124	44.289227	103.558075
188	1.87000000	183.343536	1302.758301	359.716278	197.255844	1315.486816	-21.583151	128.864532	1375.182617	181.151123	274.348297	1257.446777	161.123596	168.469482	984.235046	419.778564	145.126236	991.701111	-84.919876	288.235458	786.614868	389.790634	225.661766	791.034363	-85.993618	204.619644	857.939636	339.547211	180.199768	866.998169	-11.192481	51.674847	894.712280	229.599731	47.279285	897.924622	136.990356	49.477066	896.318451	183.295044	55.414375	1127.836304	178.108963	316.684570	1069.928833	159.198715	273.434082	516.093079	356.292908	264.717163	429.884308	307.955200	151.332504	324.790100	376.874695	-6.126985	178.483566	293.878082	-42.202644	206.010910	246.381134	68.344673	74.073120	273.961761	239.445480	510.813171	-12.699512	242.163361	428.524658	37.760555	240.518860	303.699463	-2.867060	220.417160	56.042976	88.199539	175.598709	47.396408	135.937119	355.916534	44.228699	103.478302
189	1.88000000	191.774857	1303.382812	359.263275	206.573288	1316.372559	-21.936586	137.781815	1376.115723	180.597641	282.985626	1257.935303	160.847870	174.085175	984.869995	418.789368	157.245056	992.305908	-86.229156	290.753555	785.543915	389.606552	239.986008	792.529633	-86.130550	212.063461	859.169617	338.972992	186.736252	867.352661	-12.003718	59.170681	895.841553	228.816559	54.782860	899.025391	136.252686	56.976770	897.433472	182.534622	63.634811	1129.029175	177.226288	324.652100	1070.136475	159.052155	286.277222	519.016296	355.482574	281.166443	433.087830	306.848694	170.455734	325.932556	375.647797	16.194090	176.063293	293.582550	-20.813465	201.614334	245.447968	94.888077	74.208900	276.331177	244.420639	510.761078	-13.053445	245.817245	428.373138	37.524773	243.091385	303.603638	-3.140473	220.433746	56.012848	88.261765	175.531021	47.493965	135.924026	355.869904	44.164463	103.433945
190	1.89000000	200.176483	1303.913452	358.874725	215.855560	1317.244751	-22.221310	146.689407	1376.983276	180.128937	291.598236	1258.353394	160.636475	179.768890	985.458252	417.859589	169.398361	992.933533	-87.491379	293.190582	784.415863	389.565308	254.322998	794.070526	-86.167633	219.602707	860.412109	338.440491	192.993057	867.642517	-12.751039	66.655510	896.927368	228.125778	62.249805	900.045349	135.607559	64.452658	898.486359	181.866669	71.826080	1130.161621	176.375702	332.563812	1070.288818	158.917572	299.096161	521.809082	354.485962	297.238342	436.386810	305.586426	189.347336	326.579010	374.440552	39.239895	172.378860	293.217133	1.170174	195.988266	244.689697	122.240334	73.619682	277.810730	249.418060	510.642029	-13.292037	249.503082	428.199768	37.398655	245.470139	303.531494	-3.341466	220.473907	56.001816	88.329170	175.505219	47.602543	135.921265	355.845428	44.099052	103.427269
191	1.90000000	208.550812	1304.352417	358.544189	225.099106	1318.096680	-22.444715	155.584412	1377.776123	179.738739	300.188599	1258.700562	160.479431	185.515503	986.002258	416.988617	181.576630	993.577820	-88.706070	295.563797	783.242188	389.664856	268.663300	795.650574	-86.105171	227.255768	861.639771	337.948730	199.059967	867.875854	-13.444484	74.147850	897.958557	227.532974	69.698158	900.980652	135.059677	71.923004	899.469604	181.296326	79.998482	1131.220825	175.560043	340.433136	1070.390747	158.781036	311.874634	524.455261	353.350708	312.878876	439.691895	304.231934	208.020401	326.697113	373.321686	62.993671	167.526276	292.796600	23.755367	189.248901	244.135818	150.297348	72.398567	278.364166	254.382767	510.452850	-13.426427	253.201141	428.000366	37.368603	247.677429	303.468689	-3.456966	220.536163	56.012104	88.396248	175.527847	47.720314	135.930573	355.844452	44.033142	103.455589
192	1.91000000	216.903168	1304.701294	358.266235	234.302063	1318.919922	-22.613642	164.465485	1378.485962	179.421280	308.760712	1258.975342	160.366898	191.317093	986.503174	416.176056	193.768738	994.230408	-89.872658	297.891190	782.034210	389.901566	282.997742	797.262421	-85.944542	235.032547	862.823364	337.498077	205.045425	868.056396	-14.088574	81.665092	898.924194	227.041794	77.145035	901.828064	134.612076	79.405064	900.376129	180.826935	88.162712	1132.194702	174.783401	348.274963	1070.444824	158.630600	324.556061	526.954712	352.133667	328.034485	442.912598	302.847748	226.503281	326.296387	372.327057	87.452141	161.622833	292.320618	46.964428	181.506958	243.773010	179.000336	70.649117	278.027527	259.269409	510.197205	-13.471014	256.893738	427.772064	37.416943	249.762909	303.402130	-3.483187	220.617416	56.042667	88.458542	175.600754	47.846302	135.952255	355.867554	43.966278	103.512207
193	1.92000000	225.241837	1304.961060	358.036652	243.464249	1319.705078	-22.734039	173.332993	1379.104858	179.171539	317.319733	1259.175903	160.289520	197.164276	986.960938	415.421722	205.962128	994.880981	-90.990356	300.191635	780.802246	390.270187	297.317032	798.897980	-85.688175	242.935944	863.934204	337.089325	211.061493	868.186096	-14.682064	89.223335	899.813843	226.653900	84.606400	902.584290	134.266296	86.914867	901.199066	180.460098	96.329521	1133.072388	174.050919	356.105255	1070.451904	158.456802	337.063293	529.314941	350.892365	342.655212	445.960632	301.491058	244.828751	325.402802	371.464417	112.622650	154.805557	291.776611	70.833817	172.873489	243.551819	208.316071	68.478493	276.898560	264.043701	509.883850	-13.442760	260.566406	427.513916	37.523548	251.786179	303.319092	-3.425979	220.713287	56.088871	88.514397	175.720184	47.980637	135.985291	355.914673	43.897720	103.587662
